#!OML:ASF E:/inclinewalkrobotboard/Project1/Captureday1/Session1/subject1.ASF
:FULLY-SPECIFIED
:DEGREES
76
root 0 0 0 -1.2307723135678243 -5.651706742599838 -8.272799493957752
lowerback 9.287736035727749 2.705307502226438 6.658237485887484
upperback -0.33660703354709365 4.3717751460295675 1.158116728488069
thorax -5.456781067822949 1.9982759952242781 -3.1323297775988226
lowerneck -15.199577675020013 -3.142855161420744 -1.066015972685526
upperneck 13.516217973820952 -4.381128541865062 1.6130028042091253
head 6.67654311491551 -2.0409624622362563 0.24221219078864903
rclavicle -5.036516467582546E-15 4.2423832805770846E-16
rhumerus -28.457908628921803 -19.35737195016983 -82.35972866628519
rradius 25.739058168887823
rwrist 17.315393833371026
rhand -20.43787953307585 30.04489949904817
rfingers 7.125019999999993
rthumb 5.942381877196696 -0.11386607318972608
lclavicle -5.437052304846585E-15 5.2445536744846884E-17
lhumerus -35.42000979057848 8.74667029068707 80.0557481690935
lradius 15.661365167353669
lwrist -2.347857554998933
lhand -26.79282890302718 26.809935799255772
lfingers 7.12501999999998
lthumb -0.2708149135100246 56.828663338561476
rfemur -6.409718859857197 5.6916222037914626 28.65955965549906
rtibia 36.85422794078747
rfoot -9.88900727368171 -5.212738964652286
rtoes 5.2964831807204815
lfemur -21.474222619418963 1.3051723086042157 -15.797304420833408
ltibia 40.67035888274613
lfoot -0.2444133404474922 -5.486901953654092
ltoes -5.132674086905638
77
root 0 0 0 -1.3992379270831412 -5.776950285803943 -8.1689079739744
lowerback 9.048707114740976 2.724096943256126 6.590375419212255
upperback -0.2103978375836712 4.379858757871428 1.145976927679852
thorax -5.17948757783096 2.0072247825259764 -3.094635141244374
lowerneck -14.817529112637148 -3.156965364798083 -1.1737906009659176
upperneck 13.126253877906173 -4.4031775957227195 1.918061196310008
head 6.453975748570858 -2.0470415704797915 0.36654742900718223
rclavicle -4.865863832413425E-15 1.5424219631465555E-16
rhumerus -29.091530829676906 -18.9957713308306 -82.94065779558007
rradius 24.494557656851548
rwrist 17.206465222234915
rhand -20.18215477717746 30.286388770189426
rfingers 7.125019999999994
rthumb 6.188669170457877 0.13357568101090322
lclavicle -5.505036159541289E-15 -2.802122162433307E-16
lhumerus -35.31279647520845 8.717722379425222 80.1553717907355
lradius 15.599191731180952
lwrist -2.3606721498613195
lhand -26.804288288254494 26.83956434295827
lfingers 7.125019999999981
lthumb -0.2810237633683954 56.861400721909106
rfemur -7.838300399573023 5.456354157588283 28.98740634839521
rtibia 40.42131011837992
rfoot -8.86832935403656 -5.292302240114653
rtoes 6.297164336781038
lfemur -21.375636635964195 1.3817511005585912 -16.048933343644496
ltibia 41.05426774186118
lfoot 0.20497363202536434 -5.938766956284162
ltoes -3.9727764978384528
78
root 0 0 0 -1.4912855236399964 -5.880593739079529 -8.086865575250549
lowerback 8.873530463927153 2.74954419996218 6.532247182027344
upperback -0.1315958658601795 4.399076404899224 1.1368420084571782
thorax -4.990230369199502 2.0216969987912603 -3.063866206494443
lowerneck -14.484615376641186 -3.1656892447322225 -1.25658179765116
upperneck 12.911992831037159 -4.420725822690473 2.1640193658520435
head 6.312265449272824 -2.0507935634893446 0.4655293732649386
rclavicle -4.84087384668556E-15 -4.908417500973754E-17
rhumerus -29.45603219031117 -18.505108322594396 -83.32749885985936
rradius 23.908354565313843
rwrist 16.955342212213715
rhand -20.018848977861968 30.47096954008053
rfingers 7.125019999999995
rthumb 6.344972851057316 0.3245598041831599
lclavicle -5.629224492834081E-15 -4.769942762608584E-16
lhumerus -35.22518486654934 8.654733047800633 80.21367434513613
lradius 15.617979111029484
lwrist -2.3272127049592055
lhand -26.82184069800528 26.86271700923877
lfingers 7.1250199999999815
lthumb -0.29756783411699583 56.88627546812655
rfemur -8.468961330529195 5.50166180863299 29.327102623726507
rtibia 41.25848987950602
rfoot -8.938416408501926 -5.491672074218513
rtoes 6.404991728741981
lfemur -21.39868177805571 1.3001094292930544 -16.034767281221193
ltibia 40.910203831098855
lfoot 0.10916433669041581 -5.821934002831961
ltoes -3.994140253466572
79
root 0 0 0 -1.5789069894959018 -5.989145628060426 -7.972746566321735
lowerback 8.703189564315656 2.7916414488628596 6.442576521782745
upperback -0.07788380952503118 4.435974916821112 1.1178639367117496
thorax -4.830369883711614 2.0466511076869214 -3.027250644448263
lowerneck -14.142921611326704 -3.184633874199565 -1.3505042162506093
upperneck 12.794479063293133 -4.4591436845375885 2.441256245663491
head 6.209059775340787 -2.06158822166874 0.5740407288426201
rclavicle -4.777275477348973E-15 -3.055382680399154E-16
rhumerus -29.80243491892668 -17.990334283236567 -83.67253732682984
rradius 23.330031308085232
rwrist 16.5678326990839
rhand -19.83404523715145 30.629892121331366
rfingers 7.125019999999996
rthumb 6.521816870795502 0.49448232918543056
lclavicle -5.672207285639388E-15 -6.603845784525961E-16
lhumerus -35.15592396676531 8.601743603052281 80.20359727452954
lradius 15.66728767929516
lwrist -2.266148230418336
lhand -26.860508321872185 26.90059819771243
lfingers 7.125019999999982
lthumb -0.3347036133552779 56.928485016308976
rfemur -8.75735814541207 5.613174270289271 29.525007259475483
rtibia 40.96507920711849
rfoot -9.318045329782374 -5.690969092317509
rtoes 6.163344063017806
lfemur -21.36977281875973 1.1551296684113277 -16.00773777621807
ltibia 40.56054968884703
lfoot -0.16144031477330323 -5.554429602493746
ltoes -4.217425488990415
80
root 0 0 0 -1.6707870746547901 -6.083647925368467 -7.822869677968878
lowerback 8.574361733896474 2.8432016849449533 6.319140944450147
upperback -0.05050225574428079 4.4819123859948276 1.086058808253197
thorax -4.723077577116901 2.0771232846269934 -2.986889096381449
lowerneck -13.858240529036669 -3.2173575802319094 -1.448353146467344
upperneck 12.74759637060262 -4.520377324356309 2.715340453237763
head 6.145618672552986 -2.0817371242785634 0.6787430084680349
rclavicle -4.64409018490685E-15 -6.146083877881256E-16
rhumerus -30.12579738070142 -17.54865978042613 -83.95959276266362
rradius 22.72355989049425
rwrist 16.135218486964476
rhand -19.63621256772847 30.7471382859258
rfingers 7.125019999999997
rthumb 6.711171377893338 0.6275775911713382
lclavicle -5.6050290541873325E-15 -8.283768978587587E-16
lhumerus -35.11622736895298 8.568122736024087 80.1177991981779
lradius 15.74175966712047
lwrist -2.178250951865229
lhand -26.920964247567138 26.962132959201004
lfingers 7.125019999999983
lthumb -0.39319435929910895 56.99762374808867
rfemur -8.87592267267692 5.712432785628647 29.55271313575423
rtibia 40.209694840819225
rfoot -9.71361838919977 -5.846320574532134
rtoes 5.801090005829536
lfemur -21.210842184504397 0.9905947687829824 -16.047959489355055
ltibia 40.11837225736258
lfoot -0.4921474884924528 -5.277642851130988
ltoes -4.369585624522571
